 <svg version="1.0" xmlns="http://www.w3.org/2000/svg"  width="195.000000pt" height="189.000000pt" viewBox="0 0 195.000000 189.000000"  preserveAspectRatio="xMidYMid meet">  <g transform="translate(0.000000,189.000000) scale(0.100000,-0.100000)" fill="#000000" stroke="none"> <path d="M815 1690 c-38 -21 -81 -45 -95 -52 -43 -23 -30 -44 55 -88 11 -6 36 -20 55 -31 19 -12 57 -33 83 -48 26 -14 56 -30 65 -36 9 -5 49 -28 87 -50 39 -22 78 -44 87 -50 9 -5 39 -22 65 -36 26 -15 64 -36 83 -48 60 -36 78 -41 103 -31 23 10 95 51 157 89 19 11 45 25 58 31 38 17 27 45 -30 76 -75 39 -99 53 -133 74 -16 11 -43 26 -60 34 -16 8 -52 29 -80 45 -27 17 -57 34 -65 38 -8 4 -37 20 -65 36 -123 73 -161 87 -232 86 -60 0 -77 -5 -138 -39z"/> <path d="M525 1525 c-22 -13 -60 -35 -85 -48 -25 -14 -61 -34 -80 -46 -19 -11 -45 -25 -56 -30 -18 -8 -34 -30 -34 -46 0 -2 24 -15 53 -30 28 -14 66 -34 82 -45 17 -10 53 -31 80 -46 84 -46 99 -54 135 -76 19 -11 55 -31 80 -45 25 -13 59 -33 75 -43 32 -20 112 -64 157 -87 23 -12 32 -12 52 -1 51 27 122 66 156 86 19 12 54 31 78 43 48 25 52 38 20 59 -24 15 -35 21 -113 64 -27 15 -63 36 -80 46 -31 19 -43 26 -130 74 -27 15 -63 36 -80 46 -16 10 -50 30 -75 43 -25 14 -61 34 -80 46 -19 11 -45 25 -57 30 -11 5 -24 15 -28 20 -9 16 -25 13 -70 -14z"/> <path d="M207 1263 c-4 -3 -7 -159 -7 -346 0 -382 0 -382 74 -441 22 -18 48 -36 56 -40 8 -3 31 -16 50 -27 19 -12 55 -32 80 -46 25 -13 59 -33 75 -43 17 -10 53 -31 80 -46 86 -47 99 -55 130 -74 71 -44 147 -80 156 -75 15 10 12 727 -3 747 -11 14 -126 86 -178 111 -8 4 -24 13 -35 20 -11 7 -52 30 -90 52 -39 22 -79 45 -90 52 -11 7 -27 15 -35 19 -8 4 -46 26 -85 49 -38 22 -77 44 -85 48 -8 4 -28 16 -45 26 -34 22 -39 24 -48 14z"/> <path d="M1655 1246 c-11 -7 -42 -26 -70 -40 -27 -15 -63 -36 -80 -46 -31 -19 -43 -26 -130 -74 -27 -15 -63 -36 -80 -46 -16 -10 -52 -31 -80 -46 -89 -49 -100 -55 -130 -74 -16 -11 -40 -24 -52 -30 l-23 -10 0 -379 c0 -350 4 -415 25 -381 4 6 17 16 28 21 12 5 38 19 57 30 19 12 55 32 80 46 25 13 59 33 75 43 17 10 50 30 75 43 25 14 61 34 80 46 19 11 42 24 50 28 46 21 178 104 194 122 37 41 46 120 46 433 0 163 -3 303 -6 312 -8 20 -33 21 -59 2z"/> </g> </svg> 